<svg xmlns="http://www.w3.org/2000/svg" viewBox="0 0 581 406" width="581" font-family="Georgia, serif" role="img">
<defs><marker id="arrow" markerWidth="9" markerHeight="9" refX="7" refY="4.5" orient="auto"><path d="M0,0 L9,4.5 L0,9 z" fill="#333"/></marker></defs>
<text x="36.0" y="20.0" text-anchor="start" font-family="Georgia, serif" font-size="14" dominant-baseline="central"><tspan fill="#9c9384">steps:  </tspan><tspan fill="#4a8a5f" font-weight="700">→ whole tone</tspan><tspan fill="#9c9384">    </tspan><tspan fill="#3f6f97" font-weight="700">↗ fifth</tspan><tspan fill="#9c9384">    </tspan><tspan fill="#c99a2e" font-weight="700">↖ fourth</tspan></text>
<g transform="translate(0,40)">
<polygon points="36.0,9.7 58.8,22.8 58.8,49.2 36.0,62.3 13.2,49.2 13.2,22.8" fill="#efeae1" stroke="#d6cfc0" stroke-width="1.5"/>
<polygon points="84.5,9.7 107.3,22.8 107.3,49.2 84.5,62.3 61.7,49.2 61.7,22.8" fill="#efeae1" stroke="#d6cfc0" stroke-width="1.5"/>
<polygon points="133.0,9.7 155.8,22.8 155.8,49.2 133.0,62.3 110.2,49.2 110.2,22.8" fill="#efeae1" stroke="#d6cfc0" stroke-width="1.5"/>
<polygon points="181.5,9.7 204.3,22.8 204.3,49.2 181.5,62.3 158.7,49.2 158.7,22.8" fill="#efeae1" stroke="#d6cfc0" stroke-width="1.5"/>
<polygon points="230.0,9.7 252.8,22.8 252.8,49.2 230.0,62.3 207.2,49.2 207.2,22.8" fill="#efeae1" stroke="#d6cfc0" stroke-width="1.5"/>
<polygon points="278.5,9.7 301.3,22.8 301.3,49.2 278.5,62.3 255.7,49.2 255.7,22.8" fill="#efeae1" stroke="#d6cfc0" stroke-width="1.5"/>
<polygon points="327.0,9.7 349.8,22.8 349.8,49.2 327.0,62.3 304.2,49.2 304.2,22.8" fill="#efeae1" stroke="#d6cfc0" stroke-width="1.5"/>
<polygon points="375.5,9.7 398.3,22.8 398.3,49.2 375.5,62.3 352.7,49.2 352.7,22.8" fill="#efeae1" stroke="#d6cfc0" stroke-width="1.5"/>
<polygon points="60.2,51.7 83.0,64.8 83.0,91.2 60.2,104.3 37.5,91.2 37.5,64.8" fill="#efeae1" stroke="#d6cfc0" stroke-width="1.5"/>
<polygon points="108.7,51.7 131.5,64.8 131.5,91.2 108.7,104.3 86.0,91.2 86.0,64.8" fill="#efeae1" stroke="#d6cfc0" stroke-width="1.5"/>
<polygon points="157.2,51.7 180.0,64.8 180.0,91.2 157.2,104.3 134.4,91.2 134.4,64.8" fill="#efeae1" stroke="#d6cfc0" stroke-width="1.5"/>
<polygon points="205.7,51.7 228.5,64.8 228.5,91.2 205.7,104.3 182.9,91.2 182.9,64.8" fill="#efeae1" stroke="#d6cfc0" stroke-width="1.5"/>
<polygon points="254.2,51.7 277.0,64.8 277.0,91.2 254.2,104.3 231.4,91.2 231.4,64.8" fill="#efeae1" stroke="#d6cfc0" stroke-width="1.5"/>
<polygon points="302.7,51.7 325.5,64.8 325.5,91.2 302.7,104.3 279.9,91.2 279.9,64.8" fill="#efeae1" stroke="#d6cfc0" stroke-width="1.5"/>
<polygon points="351.2,51.7 374.0,64.8 374.0,91.2 351.2,104.3 328.4,91.2 328.4,64.8" fill="#efeae1" stroke="#d6cfc0" stroke-width="1.5"/>
<polygon points="399.7,51.7 422.5,64.8 422.5,91.2 399.7,104.3 376.9,91.2 376.9,64.8" fill="#efeae1" stroke="#d6cfc0" stroke-width="1.5"/>
<polygon points="84.5,93.7 107.3,106.8 107.3,133.2 84.5,146.3 61.7,133.2 61.7,106.8" fill="#efeae1" stroke="#d6cfc0" stroke-width="1.5"/>
<polygon points="133.0,93.7 155.8,106.8 155.8,133.2 133.0,146.3 110.2,133.2 110.2,106.8" fill="#efeae1" stroke="#d6cfc0" stroke-width="1.5"/>
<polygon points="181.5,93.7 204.3,106.8 204.3,133.2 181.5,146.3 158.7,133.2 158.7,106.8" fill="#efeae1" stroke="#d6cfc0" stroke-width="1.5"/>
<polygon points="230.0,93.7 252.8,106.8 252.8,133.2 230.0,146.3 207.2,133.2 207.2,106.8" fill="#efeae1" stroke="#d6cfc0" stroke-width="1.5"/>
<polygon points="278.5,93.7 301.3,106.8 301.3,133.2 278.5,146.3 255.7,133.2 255.7,106.8" fill="#efeae1" stroke="#d6cfc0" stroke-width="1.5"/>
<polygon points="327.0,93.7 349.8,106.8 349.8,133.2 327.0,146.3 304.2,133.2 304.2,106.8" fill="#efeae1" stroke="#d6cfc0" stroke-width="1.5"/>
<polygon points="375.5,93.7 398.3,106.8 398.3,133.2 375.5,146.3 352.7,133.2 352.7,106.8" fill="#efeae1" stroke="#d6cfc0" stroke-width="1.5"/>
<polygon points="424.0,93.7 446.8,106.8 446.8,133.2 424.0,146.3 401.2,133.2 401.2,106.8" fill="#efeae1" stroke="#d6cfc0" stroke-width="1.5"/>
<polygon points="108.7,135.7 131.5,148.8 131.5,175.2 108.7,188.3 86.0,175.2 86.0,148.8" fill="#efeae1" stroke="#d6cfc0" stroke-width="1.5"/>
<polygon points="157.2,135.7 180.0,148.8 180.0,175.2 157.2,188.3 134.4,175.2 134.4,148.8" fill="#efeae1" stroke="#d6cfc0" stroke-width="1.5"/>
<polygon points="205.7,135.7 228.5,148.8 228.5,175.2 205.7,188.3 182.9,175.2 182.9,148.8" fill="#efeae1" stroke="#d6cfc0" stroke-width="1.5"/>
<polygon points="254.2,135.7 277.0,148.8 277.0,175.2 254.2,188.3 231.4,175.2 231.4,148.8" fill="#efeae1" stroke="#d6cfc0" stroke-width="1.5"/>
<polygon points="302.7,135.7 325.5,148.8 325.5,175.2 302.7,188.3 279.9,175.2 279.9,148.8" fill="#efeae1" stroke="#d6cfc0" stroke-width="1.5"/>
<polygon points="351.2,135.7 374.0,148.8 374.0,175.2 351.2,188.3 328.4,175.2 328.4,148.8" fill="#efeae1" stroke="#d6cfc0" stroke-width="1.5"/>
<polygon points="399.7,135.7 422.5,148.8 422.5,175.2 399.7,188.3 376.9,175.2 376.9,148.8" fill="#efeae1" stroke="#d6cfc0" stroke-width="1.5"/>
<polygon points="448.2,135.7 471.0,148.8 471.0,175.2 448.2,188.3 425.4,175.2 425.4,148.8" fill="#efeae1" stroke="#d6cfc0" stroke-width="1.5"/>
<polygon points="133.0,177.7 155.8,190.8 155.8,217.2 133.0,230.3 110.2,217.2 110.2,190.8" fill="#efeae1" stroke="#d6cfc0" stroke-width="1.5"/>
<polygon points="181.5,177.7 204.3,190.8 204.3,217.2 181.5,230.3 158.7,217.2 158.7,190.8" fill="#efeae1" stroke="#d6cfc0" stroke-width="1.5"/>
<polygon points="230.0,177.7 252.8,190.8 252.8,217.2 230.0,230.3 207.2,217.2 207.2,190.8" fill="#efeae1" stroke="#d6cfc0" stroke-width="1.5"/>
<polygon points="278.5,177.7 301.3,190.8 301.3,217.2 278.5,230.3 255.7,217.2 255.7,190.8" fill="#efeae1" stroke="#d6cfc0" stroke-width="1.5"/>
<polygon points="327.0,177.7 349.8,190.8 349.8,217.2 327.0,230.3 304.2,217.2 304.2,190.8" fill="#efeae1" stroke="#d6cfc0" stroke-width="1.5"/>
<polygon points="375.5,177.7 398.3,190.8 398.3,217.2 375.5,230.3 352.7,217.2 352.7,190.8" fill="#efeae1" stroke="#d6cfc0" stroke-width="1.5"/>
<polygon points="424.0,177.7 446.8,190.8 446.8,217.2 424.0,230.3 401.2,217.2 401.2,190.8" fill="#efeae1" stroke="#d6cfc0" stroke-width="1.5"/>
<polygon points="472.5,177.7 495.3,190.8 495.3,217.2 472.5,230.3 449.7,217.2 449.7,190.8" fill="#efeae1" stroke="#d6cfc0" stroke-width="1.5"/>
<polygon points="157.2,219.7 180.0,232.8 180.0,259.2 157.2,272.3 134.4,259.2 134.4,232.8" fill="#efeae1" stroke="#d6cfc0" stroke-width="1.5"/>
<polygon points="205.7,219.7 228.5,232.8 228.5,259.2 205.7,272.3 182.9,259.2 182.9,232.8" fill="#efeae1" stroke="#d6cfc0" stroke-width="1.5"/>
<polygon points="254.2,219.7 277.0,232.8 277.0,259.2 254.2,272.3 231.4,259.2 231.4,232.8" fill="#efeae1" stroke="#d6cfc0" stroke-width="1.5"/>
<polygon points="302.7,219.7 325.5,232.8 325.5,259.2 302.7,272.3 279.9,259.2 279.9,232.8" fill="#efeae1" stroke="#d6cfc0" stroke-width="1.5"/>
<polygon points="351.2,219.7 374.0,232.8 374.0,259.2 351.2,272.3 328.4,259.2 328.4,232.8" fill="#efeae1" stroke="#d6cfc0" stroke-width="1.5"/>
<polygon points="399.7,219.7 422.5,232.8 422.5,259.2 399.7,272.3 376.9,259.2 376.9,232.8" fill="#efeae1" stroke="#d6cfc0" stroke-width="1.5"/>
<polygon points="448.2,219.7 471.0,232.8 471.0,259.2 448.2,272.3 425.4,259.2 425.4,232.8" fill="#efeae1" stroke="#d6cfc0" stroke-width="1.5"/>
<polygon points="496.7,219.7 519.5,232.8 519.5,259.2 496.7,272.3 473.9,259.2 473.9,232.8" fill="#efeae1" stroke="#d6cfc0" stroke-width="1.5"/>
<polygon points="181.5,261.7 204.3,274.8 204.3,301.2 181.5,314.3 158.7,301.2 158.7,274.8" fill="#efeae1" stroke="#d6cfc0" stroke-width="1.5"/>
<polygon points="230.0,261.7 252.8,274.8 252.8,301.2 230.0,314.3 207.2,301.2 207.2,274.8" fill="#efeae1" stroke="#d6cfc0" stroke-width="1.5"/>
<polygon points="278.5,261.7 301.3,274.8 301.3,301.2 278.5,314.3 255.7,301.2 255.7,274.8" fill="#efeae1" stroke="#d6cfc0" stroke-width="1.5"/>
<polygon points="327.0,261.7 349.8,274.8 349.8,301.2 327.0,314.3 304.2,301.2 304.2,274.8" fill="#efeae1" stroke="#d6cfc0" stroke-width="1.5"/>
<polygon points="375.5,261.7 398.3,274.8 398.3,301.2 375.5,314.3 352.7,301.2 352.7,274.8" fill="#efeae1" stroke="#d6cfc0" stroke-width="1.5"/>
<polygon points="424.0,261.7 446.8,274.8 446.8,301.2 424.0,314.3 401.2,301.2 401.2,274.8" fill="#efeae1" stroke="#d6cfc0" stroke-width="1.5"/>
<polygon points="472.5,261.7 495.3,274.8 495.3,301.2 472.5,314.3 449.7,301.2 449.7,274.8" fill="#efeae1" stroke="#d6cfc0" stroke-width="1.5"/>
<polygon points="521.0,261.7 543.8,274.8 543.8,301.2 521.0,314.3 498.2,301.2 498.2,274.8" fill="#efeae1" stroke="#d6cfc0" stroke-width="1.5"/>
<polygon points="205.7,303.7 228.5,316.8 228.5,343.2 205.7,356.3 182.9,343.2 182.9,316.8" fill="#efeae1" stroke="#d6cfc0" stroke-width="1.5"/>
<polygon points="254.2,303.7 277.0,316.8 277.0,343.2 254.2,356.3 231.4,343.2 231.4,316.8" fill="#efeae1" stroke="#d6cfc0" stroke-width="1.5"/>
<polygon points="302.7,303.7 325.5,316.8 325.5,343.2 302.7,356.3 279.9,343.2 279.9,316.8" fill="#efeae1" stroke="#d6cfc0" stroke-width="1.5"/>
<polygon points="351.2,303.7 374.0,316.8 374.0,343.2 351.2,356.3 328.4,343.2 328.4,316.8" fill="#efeae1" stroke="#d6cfc0" stroke-width="1.5"/>
<polygon points="399.7,303.7 422.5,316.8 422.5,343.2 399.7,356.3 376.9,343.2 376.9,316.8" fill="#efeae1" stroke="#d6cfc0" stroke-width="1.5"/>
<polygon points="448.2,303.7 471.0,316.8 471.0,343.2 448.2,356.3 425.4,343.2 425.4,316.8" fill="#efeae1" stroke="#d6cfc0" stroke-width="1.5"/>
<polygon points="496.7,303.7 519.5,316.8 519.5,343.2 496.7,356.3 473.9,343.2 473.9,316.8" fill="#efeae1" stroke="#d6cfc0" stroke-width="1.5"/>
<polygon points="545.2,303.7 568.0,316.8 568.0,343.2 545.2,356.3 522.4,343.2 522.4,316.8" fill="#efeae1" stroke="#d6cfc0" stroke-width="1.5"/>
<polygon points="230.0,261.7 252.8,274.8 252.8,301.2 230.0,314.3 207.2,301.2 207.2,274.8" fill="#6b7280" stroke="#00000022" stroke-width="2"/>
<text x="230.0" y="288.0" text-anchor="middle" font-family="Georgia, serif" font-size="15" font-weight="700" fill="#fff" dominant-baseline="central">C</text>
<polygon points="254.2,219.7 277.0,232.8 277.0,259.2 254.2,272.3 231.4,259.2 231.4,232.8" fill="#6b7280" stroke="#00000022" stroke-width="2"/>
<text x="254.2" y="246.0" text-anchor="middle" font-family="Georgia, serif" font-size="15" font-weight="700" fill="#fff" dominant-baseline="central">G</text>
<polygon points="278.5,177.7 301.3,190.8 301.3,217.2 278.5,230.3 255.7,217.2 255.7,190.8" fill="#6b7280" stroke="#00000022" stroke-width="2"/>
<text x="278.5" y="204.0" text-anchor="middle" font-family="Georgia, serif" font-size="15" font-weight="700" fill="#fff" dominant-baseline="central">D</text>
<polygon points="302.7,135.7 325.5,148.8 325.5,175.2 302.7,188.3 279.9,175.2 279.9,148.8" fill="#6b7280" stroke="#00000022" stroke-width="2"/>
<text x="302.7" y="162.0" text-anchor="middle" font-family="Georgia, serif" font-size="15" font-weight="700" fill="#fff" dominant-baseline="central">A</text>
<polygon points="327.0,93.7 349.8,106.8 349.8,133.2 327.0,146.3 304.2,133.2 304.2,106.8" fill="#6b7280" stroke="#00000022" stroke-width="2"/>
<text x="327.0" y="120.0" text-anchor="middle" font-family="Georgia, serif" font-size="15" font-weight="700" fill="#fff" dominant-baseline="central">E</text>
<polygon points="351.2,51.7 374.0,64.8 374.0,91.2 351.2,104.3 328.4,91.2 328.4,64.8" fill="#6b7280" stroke="#00000022" stroke-width="2"/>
<text x="351.2" y="78.0" text-anchor="middle" font-family="Georgia, serif" font-size="15" font-weight="700" fill="#fff" dominant-baseline="central">B</text>
<polygon points="205.7,303.7 228.5,316.8 228.5,343.2 205.7,356.3 182.9,343.2 182.9,316.8" fill="#c8683c" stroke="#00000022" stroke-width="2"/>
<text x="205.7" y="330.0" text-anchor="middle" font-family="Georgia, serif" font-size="15" font-weight="700" fill="#fff" dominant-baseline="central">F</text>
<polygon points="375.5,9.7 398.3,22.8 398.3,49.2 375.5,62.3 352.7,49.2 352.7,22.8" fill="#5f7d4f" stroke="#00000022" stroke-width="2"/>
<text x="375.5" y="36.0" text-anchor="middle" font-family="Georgia, serif" font-size="15" font-weight="700" fill="#fff" dominant-baseline="central">F♯</text>
<text x="172.1" y="330.0" text-anchor="end" font-family="Georgia, serif" font-size="13" font-weight="800" fill="#c8683c" dominant-baseline="central">C major</text><text x="409.1" y="36.0" text-anchor="start" font-family="Georgia, serif" font-size="13" font-weight="800" fill="#5f7d4f" dominant-baseline="central">G major</text>
</g>
</svg>