<svg xmlns="http://www.w3.org/2000/svg" viewBox="0 0 607 360" width="607" font-family="Georgia, serif" role="img">
<defs><marker id="arrow" markerWidth="9" markerHeight="9" refX="7" refY="4.5" orient="auto"><path d="M0,0 L9,4.5 L0,9 z" fill="#333"/></marker></defs>
<text x="40.0" y="20.0" text-anchor="start" font-family="Georgia, serif" font-size="14" dominant-baseline="central"><tspan fill="#9c9384">steps:  </tspan><tspan fill="#4a8a5f" font-weight="700">→ whole tone</tspan><tspan fill="#9c9384">    </tspan><tspan fill="#3f6f97" font-weight="700">↗ fifth</tspan><tspan fill="#9c9384">    </tspan><tspan fill="#c99a2e" font-weight="700">↖ fourth</tspan></text>
<g transform="translate(0,40)">
<polygon points="40.0,9.9 66.1,25.0 66.1,55.0 40.0,70.1 13.9,55.0 13.9,25.0" fill="#efeae1" stroke="#d6cfc0" stroke-width="1.5"/>
<polygon points="95.4,9.9 121.5,25.0 121.5,55.0 95.4,70.1 69.4,55.0 69.4,25.0" fill="#efeae1" stroke="#d6cfc0" stroke-width="1.5"/>
<polygon points="150.9,9.9 176.9,25.0 176.9,55.0 150.9,70.1 124.8,55.0 124.8,25.0" fill="#efeae1" stroke="#d6cfc0" stroke-width="1.5"/>
<polygon points="206.3,9.9 232.3,25.0 232.3,55.0 206.3,70.1 180.2,55.0 180.2,25.0" fill="#efeae1" stroke="#d6cfc0" stroke-width="1.5"/>
<polygon points="261.7,9.9 287.8,25.0 287.8,55.0 261.7,70.1 235.7,55.0 235.7,25.0" fill="#efeae1" stroke="#d6cfc0" stroke-width="1.5"/>
<polygon points="317.1,9.9 343.2,25.0 343.2,55.0 317.1,70.1 291.1,55.0 291.1,25.0" fill="#efeae1" stroke="#d6cfc0" stroke-width="1.5"/>
<polygon points="372.6,9.9 398.6,25.0 398.6,55.0 372.6,70.1 346.5,55.0 346.5,25.0" fill="#efeae1" stroke="#d6cfc0" stroke-width="1.5"/>
<polygon points="428.0,9.9 454.0,25.0 454.0,55.0 428.0,70.1 401.9,55.0 401.9,25.0" fill="#efeae1" stroke="#d6cfc0" stroke-width="1.5"/>
<polygon points="67.7,57.9 93.8,73.0 93.8,103.0 67.7,118.1 41.7,103.0 41.7,73.0" fill="#efeae1" stroke="#d6cfc0" stroke-width="1.5"/>
<polygon points="123.1,57.9 149.2,73.0 149.2,103.0 123.1,118.1 97.1,103.0 97.1,73.0" fill="#efeae1" stroke="#d6cfc0" stroke-width="1.5"/>
<polygon points="178.6,57.9 204.6,73.0 204.6,103.0 178.6,118.1 152.5,103.0 152.5,73.0" fill="#efeae1" stroke="#d6cfc0" stroke-width="1.5"/>
<polygon points="234.0,57.9 260.0,73.0 260.0,103.0 234.0,118.1 207.9,103.0 207.9,73.0" fill="#efeae1" stroke="#d6cfc0" stroke-width="1.5"/>
<polygon points="289.4,57.9 315.5,73.0 315.5,103.0 289.4,118.1 263.4,103.0 263.4,73.0" fill="#efeae1" stroke="#d6cfc0" stroke-width="1.5"/>
<polygon points="344.8,57.9 370.9,73.0 370.9,103.0 344.8,118.1 318.8,103.0 318.8,73.0" fill="#efeae1" stroke="#d6cfc0" stroke-width="1.5"/>
<polygon points="400.3,57.9 426.3,73.0 426.3,103.0 400.3,118.1 374.2,103.0 374.2,73.0" fill="#efeae1" stroke="#d6cfc0" stroke-width="1.5"/>
<polygon points="455.7,57.9 481.7,73.0 481.7,103.0 455.7,118.1 429.6,103.0 429.6,73.0" fill="#efeae1" stroke="#d6cfc0" stroke-width="1.5"/>
<polygon points="95.4,105.9 121.5,121.0 121.5,151.0 95.4,166.1 69.4,151.0 69.4,121.0" fill="#efeae1" stroke="#d6cfc0" stroke-width="1.5"/>
<polygon points="150.9,105.9 176.9,121.0 176.9,151.0 150.9,166.1 124.8,151.0 124.8,121.0" fill="#efeae1" stroke="#d6cfc0" stroke-width="1.5"/>
<polygon points="206.3,105.9 232.3,121.0 232.3,151.0 206.3,166.1 180.2,151.0 180.2,121.0" fill="#efeae1" stroke="#d6cfc0" stroke-width="1.5"/>
<polygon points="261.7,105.9 287.8,121.0 287.8,151.0 261.7,166.1 235.7,151.0 235.7,121.0" fill="#efeae1" stroke="#d6cfc0" stroke-width="1.5"/>
<polygon points="317.1,105.9 343.2,121.0 343.2,151.0 317.1,166.1 291.1,151.0 291.1,121.0" fill="#efeae1" stroke="#d6cfc0" stroke-width="1.5"/>
<polygon points="372.6,105.9 398.6,121.0 398.6,151.0 372.6,166.1 346.5,151.0 346.5,121.0" fill="#efeae1" stroke="#d6cfc0" stroke-width="1.5"/>
<polygon points="428.0,105.9 454.0,121.0 454.0,151.0 428.0,166.1 401.9,151.0 401.9,121.0" fill="#efeae1" stroke="#d6cfc0" stroke-width="1.5"/>
<polygon points="483.4,105.9 509.5,121.0 509.5,151.0 483.4,166.1 457.4,151.0 457.4,121.0" fill="#efeae1" stroke="#d6cfc0" stroke-width="1.5"/>
<polygon points="123.1,153.9 149.2,169.0 149.2,199.0 123.1,214.1 97.1,199.0 97.1,169.0" fill="#efeae1" stroke="#d6cfc0" stroke-width="1.5"/>
<polygon points="178.6,153.9 204.6,169.0 204.6,199.0 178.6,214.1 152.5,199.0 152.5,169.0" fill="#efeae1" stroke="#d6cfc0" stroke-width="1.5"/>
<polygon points="234.0,153.9 260.0,169.0 260.0,199.0 234.0,214.1 207.9,199.0 207.9,169.0" fill="#efeae1" stroke="#d6cfc0" stroke-width="1.5"/>
<polygon points="289.4,153.9 315.5,169.0 315.5,199.0 289.4,214.1 263.4,199.0 263.4,169.0" fill="#efeae1" stroke="#d6cfc0" stroke-width="1.5"/>
<polygon points="344.8,153.9 370.9,169.0 370.9,199.0 344.8,214.1 318.8,199.0 318.8,169.0" fill="#efeae1" stroke="#d6cfc0" stroke-width="1.5"/>
<polygon points="400.3,153.9 426.3,169.0 426.3,199.0 400.3,214.1 374.2,199.0 374.2,169.0" fill="#efeae1" stroke="#d6cfc0" stroke-width="1.5"/>
<polygon points="455.7,153.9 481.7,169.0 481.7,199.0 455.7,214.1 429.6,199.0 429.6,169.0" fill="#efeae1" stroke="#d6cfc0" stroke-width="1.5"/>
<polygon points="511.1,153.9 537.2,169.0 537.2,199.0 511.1,214.1 485.1,199.0 485.1,169.0" fill="#efeae1" stroke="#d6cfc0" stroke-width="1.5"/>
<polygon points="150.9,201.9 176.9,217.0 176.9,247.0 150.9,262.1 124.8,247.0 124.8,217.0" fill="#efeae1" stroke="#d6cfc0" stroke-width="1.5"/>
<polygon points="206.3,201.9 232.3,217.0 232.3,247.0 206.3,262.1 180.2,247.0 180.2,217.0" fill="#efeae1" stroke="#d6cfc0" stroke-width="1.5"/>
<polygon points="261.7,201.9 287.8,217.0 287.8,247.0 261.7,262.1 235.7,247.0 235.7,217.0" fill="#efeae1" stroke="#d6cfc0" stroke-width="1.5"/>
<polygon points="317.1,201.9 343.2,217.0 343.2,247.0 317.1,262.1 291.1,247.0 291.1,217.0" fill="#efeae1" stroke="#d6cfc0" stroke-width="1.5"/>
<polygon points="372.6,201.9 398.6,217.0 398.6,247.0 372.6,262.1 346.5,247.0 346.5,217.0" fill="#efeae1" stroke="#d6cfc0" stroke-width="1.5"/>
<polygon points="428.0,201.9 454.0,217.0 454.0,247.0 428.0,262.1 401.9,247.0 401.9,217.0" fill="#efeae1" stroke="#d6cfc0" stroke-width="1.5"/>
<polygon points="483.4,201.9 509.5,217.0 509.5,247.0 483.4,262.1 457.4,247.0 457.4,217.0" fill="#efeae1" stroke="#d6cfc0" stroke-width="1.5"/>
<polygon points="538.8,201.9 564.9,217.0 564.9,247.0 538.8,262.1 512.8,247.0 512.8,217.0" fill="#efeae1" stroke="#d6cfc0" stroke-width="1.5"/>
<polygon points="178.6,249.9 204.6,265.0 204.6,295.0 178.6,310.1 152.5,295.0 152.5,265.0" fill="#efeae1" stroke="#d6cfc0" stroke-width="1.5"/>
<polygon points="234.0,249.9 260.0,265.0 260.0,295.0 234.0,310.1 207.9,295.0 207.9,265.0" fill="#efeae1" stroke="#d6cfc0" stroke-width="1.5"/>
<polygon points="289.4,249.9 315.5,265.0 315.5,295.0 289.4,310.1 263.4,295.0 263.4,265.0" fill="#efeae1" stroke="#d6cfc0" stroke-width="1.5"/>
<polygon points="344.8,249.9 370.9,265.0 370.9,295.0 344.8,310.1 318.8,295.0 318.8,265.0" fill="#efeae1" stroke="#d6cfc0" stroke-width="1.5"/>
<polygon points="400.3,249.9 426.3,265.0 426.3,295.0 400.3,310.1 374.2,295.0 374.2,265.0" fill="#efeae1" stroke="#d6cfc0" stroke-width="1.5"/>
<polygon points="455.7,249.9 481.7,265.0 481.7,295.0 455.7,310.1 429.6,295.0 429.6,265.0" fill="#efeae1" stroke="#d6cfc0" stroke-width="1.5"/>
<polygon points="511.1,249.9 537.2,265.0 537.2,295.0 511.1,310.1 485.1,295.0 485.1,265.0" fill="#efeae1" stroke="#d6cfc0" stroke-width="1.5"/>
<polygon points="566.5,249.9 592.6,265.0 592.6,295.0 566.5,310.1 540.5,295.0 540.5,265.0" fill="#efeae1" stroke="#d6cfc0" stroke-width="1.5"/>
<polygon points="178.6,153.9 204.6,169.0 204.6,199.0 178.6,214.1 152.5,199.0 152.5,169.0" fill="#c8683c" stroke="#00000022" stroke-width="2"/>
<text x="178.6" y="184.0" text-anchor="middle" font-family="Georgia, serif" font-size="15" font-weight="700" fill="#fff" dominant-baseline="central">C</text>
<polygon points="206.3,105.9 232.3,121.0 232.3,151.0 206.3,166.1 180.2,151.0 180.2,121.0" fill="#3f6f97" stroke="#00000022" stroke-width="2"/>
<text x="206.3" y="136.0" text-anchor="middle" font-family="Georgia, serif" font-size="15" font-weight="700" fill="#fff" dominant-baseline="central">G</text>
<polygon points="234.0,57.9 260.0,73.0 260.0,103.0 234.0,118.1 207.9,103.0 207.9,73.0" fill="#3f6f97" stroke="#00000022" stroke-width="2"/>
<text x="234.0" y="88.0" text-anchor="middle" font-family="Georgia, serif" font-size="15" font-weight="700" fill="#fff" dominant-baseline="central">D</text>
<polygon points="261.7,9.9 287.8,25.0 287.8,55.0 261.7,70.1 235.7,55.0 235.7,25.0" fill="#3f6f97" stroke="#00000022" stroke-width="2"/>
<text x="261.7" y="40.0" text-anchor="middle" font-family="Georgia, serif" font-size="15" font-weight="700" fill="#fff" dominant-baseline="central">A</text>
<line x1="246.0" y1="67.2" x2="249.7" y2="60.8" stroke="#333" stroke-width="3" marker-end="url(#arrow)"/><line x1="218.3" y1="115.2" x2="222.0" y2="108.8" stroke="#333" stroke-width="3" marker-end="url(#arrow)"/><line x1="190.6" y1="163.2" x2="194.2" y2="156.8" stroke="#333" stroke-width="3" marker-end="url(#arrow)"/><text x="141.8" y="184.0" text-anchor="end" font-family="Georgia, serif" font-size="15" font-weight="800" fill="#3b342b" dominant-baseline="central">I</text><text x="169.5" y="136.0" text-anchor="end" font-family="Georgia, serif" font-size="15" font-weight="800" fill="#3b342b" dominant-baseline="central">V</text><text x="197.2" y="88.0" text-anchor="end" font-family="Georgia, serif" font-size="15" font-weight="800" fill="#3b342b" dominant-baseline="central">ii</text><text x="224.9" y="40.0" text-anchor="end" font-family="Georgia, serif" font-size="15" font-weight="800" fill="#3b342b" dominant-baseline="central">vi</text>
</g>
</svg>