<svg xmlns="http://www.w3.org/2000/svg" viewBox="0 0 596 386" width="596" font-family="Georgia, serif" role="img">
<defs><marker id="arrow" markerWidth="9" markerHeight="9" refX="7" refY="4.5" orient="auto"><path d="M0,0 L9,4.5 L0,9 z" fill="#333"/></marker></defs>
<text x="38.0" y="20.0" text-anchor="start" font-family="Georgia, serif" font-size="14" dominant-baseline="central"><tspan fill="#9c9384">steps:  </tspan><tspan fill="#4a8a5f" font-weight="700">→ whole tone</tspan><tspan fill="#9c9384">    </tspan><tspan fill="#3f6f97" font-weight="700">↗ fifth</tspan><tspan fill="#9c9384">    </tspan><tspan fill="#c99a2e" font-weight="700">↖ fourth</tspan></text>
<g transform="translate(0,40)">
<polygon points="38.0,9.8 62.4,23.9 62.4,52.1 38.0,66.2 13.6,52.1 13.6,23.9" fill="#efeae1" stroke="#d6cfc0" stroke-width="1.5"/>
<polygon points="90.0,9.8 114.4,23.9 114.4,52.1 90.0,66.2 65.5,52.1 65.5,23.9" fill="#efeae1" stroke="#d6cfc0" stroke-width="1.5"/>
<polygon points="141.9,9.8 166.3,23.9 166.3,52.1 141.9,66.2 117.5,52.1 117.5,23.9" fill="#efeae1" stroke="#d6cfc0" stroke-width="1.5"/>
<polygon points="193.9,9.8 218.3,23.9 218.3,52.1 193.9,66.2 169.5,52.1 169.5,23.9" fill="#efeae1" stroke="#d6cfc0" stroke-width="1.5"/>
<polygon points="245.8,9.8 270.3,23.9 270.3,52.1 245.8,66.2 221.4,52.1 221.4,23.9" fill="#efeae1" stroke="#d6cfc0" stroke-width="1.5"/>
<polygon points="297.8,9.8 322.2,23.9 322.2,52.1 297.8,66.2 273.4,52.1 273.4,23.9" fill="#efeae1" stroke="#d6cfc0" stroke-width="1.5"/>
<polygon points="349.8,9.8 374.2,23.9 374.2,52.1 349.8,66.2 325.3,52.1 325.3,23.9" fill="#efeae1" stroke="#d6cfc0" stroke-width="1.5"/>
<polygon points="401.7,9.8 426.2,23.9 426.2,52.1 401.7,66.2 377.3,52.1 377.3,23.9" fill="#efeae1" stroke="#d6cfc0" stroke-width="1.5"/>
<polygon points="64.0,54.8 88.4,68.9 88.4,97.1 64.0,111.2 39.6,97.1 39.6,68.9" fill="#efeae1" stroke="#d6cfc0" stroke-width="1.5"/>
<polygon points="115.9,54.8 140.4,68.9 140.4,97.1 115.9,111.2 91.5,97.1 91.5,68.9" fill="#efeae1" stroke="#d6cfc0" stroke-width="1.5"/>
<polygon points="167.9,54.8 192.3,68.9 192.3,97.1 167.9,111.2 143.5,97.1 143.5,68.9" fill="#efeae1" stroke="#d6cfc0" stroke-width="1.5"/>
<polygon points="219.9,54.8 244.3,68.9 244.3,97.1 219.9,111.2 195.4,97.1 195.4,68.9" fill="#efeae1" stroke="#d6cfc0" stroke-width="1.5"/>
<polygon points="271.8,54.8 296.2,68.9 296.2,97.1 271.8,111.2 247.4,97.1 247.4,68.9" fill="#efeae1" stroke="#d6cfc0" stroke-width="1.5"/>
<polygon points="323.8,54.8 348.2,68.9 348.2,97.1 323.8,111.2 299.4,97.1 299.4,68.9" fill="#efeae1" stroke="#d6cfc0" stroke-width="1.5"/>
<polygon points="375.7,54.8 400.2,68.9 400.2,97.1 375.7,111.2 351.3,97.1 351.3,68.9" fill="#efeae1" stroke="#d6cfc0" stroke-width="1.5"/>
<polygon points="427.7,54.8 452.1,68.9 452.1,97.1 427.7,111.2 403.3,97.1 403.3,68.9" fill="#efeae1" stroke="#d6cfc0" stroke-width="1.5"/>
<polygon points="90.0,99.8 114.4,113.9 114.4,142.1 90.0,156.2 65.5,142.1 65.5,113.9" fill="#efeae1" stroke="#d6cfc0" stroke-width="1.5"/>
<polygon points="141.9,99.8 166.3,113.9 166.3,142.1 141.9,156.2 117.5,142.1 117.5,113.9" fill="#efeae1" stroke="#d6cfc0" stroke-width="1.5"/>
<polygon points="193.9,99.8 218.3,113.9 218.3,142.1 193.9,156.2 169.5,142.1 169.5,113.9" fill="#efeae1" stroke="#d6cfc0" stroke-width="1.5"/>
<polygon points="245.8,99.8 270.3,113.9 270.3,142.1 245.8,156.2 221.4,142.1 221.4,113.9" fill="#efeae1" stroke="#d6cfc0" stroke-width="1.5"/>
<polygon points="297.8,99.8 322.2,113.9 322.2,142.1 297.8,156.2 273.4,142.1 273.4,113.9" fill="#efeae1" stroke="#d6cfc0" stroke-width="1.5"/>
<polygon points="349.8,99.8 374.2,113.9 374.2,142.1 349.8,156.2 325.3,142.1 325.3,113.9" fill="#efeae1" stroke="#d6cfc0" stroke-width="1.5"/>
<polygon points="401.7,99.8 426.2,113.9 426.2,142.1 401.7,156.2 377.3,142.1 377.3,113.9" fill="#efeae1" stroke="#d6cfc0" stroke-width="1.5"/>
<polygon points="453.7,99.8 478.1,113.9 478.1,142.1 453.7,156.2 429.3,142.1 429.3,113.9" fill="#efeae1" stroke="#d6cfc0" stroke-width="1.5"/>
<polygon points="115.9,144.8 140.4,158.9 140.4,187.1 115.9,201.2 91.5,187.1 91.5,158.9" fill="#efeae1" stroke="#d6cfc0" stroke-width="1.5"/>
<polygon points="167.9,144.8 192.3,158.9 192.3,187.1 167.9,201.2 143.5,187.1 143.5,158.9" fill="#efeae1" stroke="#d6cfc0" stroke-width="1.5"/>
<polygon points="219.9,144.8 244.3,158.9 244.3,187.1 219.9,201.2 195.4,187.1 195.4,158.9" fill="#efeae1" stroke="#d6cfc0" stroke-width="1.5"/>
<polygon points="271.8,144.8 296.2,158.9 296.2,187.1 271.8,201.2 247.4,187.1 247.4,158.9" fill="#efeae1" stroke="#d6cfc0" stroke-width="1.5"/>
<polygon points="323.8,144.8 348.2,158.9 348.2,187.1 323.8,201.2 299.4,187.1 299.4,158.9" fill="#efeae1" stroke="#d6cfc0" stroke-width="1.5"/>
<polygon points="375.7,144.8 400.2,158.9 400.2,187.1 375.7,201.2 351.3,187.1 351.3,158.9" fill="#efeae1" stroke="#d6cfc0" stroke-width="1.5"/>
<polygon points="427.7,144.8 452.1,158.9 452.1,187.1 427.7,201.2 403.3,187.1 403.3,158.9" fill="#efeae1" stroke="#d6cfc0" stroke-width="1.5"/>
<polygon points="479.7,144.8 504.1,158.9 504.1,187.1 479.7,201.2 455.3,187.1 455.3,158.9" fill="#efeae1" stroke="#d6cfc0" stroke-width="1.5"/>
<polygon points="141.9,189.8 166.3,203.9 166.3,232.1 141.9,246.2 117.5,232.1 117.5,203.9" fill="#efeae1" stroke="#d6cfc0" stroke-width="1.5"/>
<polygon points="193.9,189.8 218.3,203.9 218.3,232.1 193.9,246.2 169.5,232.1 169.5,203.9" fill="#efeae1" stroke="#d6cfc0" stroke-width="1.5"/>
<polygon points="245.8,189.8 270.3,203.9 270.3,232.1 245.8,246.2 221.4,232.1 221.4,203.9" fill="#efeae1" stroke="#d6cfc0" stroke-width="1.5"/>
<polygon points="297.8,189.8 322.2,203.9 322.2,232.1 297.8,246.2 273.4,232.1 273.4,203.9" fill="#efeae1" stroke="#d6cfc0" stroke-width="1.5"/>
<polygon points="349.8,189.8 374.2,203.9 374.2,232.1 349.8,246.2 325.3,232.1 325.3,203.9" fill="#efeae1" stroke="#d6cfc0" stroke-width="1.5"/>
<polygon points="401.7,189.8 426.2,203.9 426.2,232.1 401.7,246.2 377.3,232.1 377.3,203.9" fill="#efeae1" stroke="#d6cfc0" stroke-width="1.5"/>
<polygon points="453.7,189.8 478.1,203.9 478.1,232.1 453.7,246.2 429.3,232.1 429.3,203.9" fill="#efeae1" stroke="#d6cfc0" stroke-width="1.5"/>
<polygon points="505.7,189.8 530.1,203.9 530.1,232.1 505.7,246.2 481.2,232.1 481.2,203.9" fill="#efeae1" stroke="#d6cfc0" stroke-width="1.5"/>
<polygon points="167.9,234.8 192.3,248.9 192.3,277.1 167.9,291.2 143.5,277.1 143.5,248.9" fill="#efeae1" stroke="#d6cfc0" stroke-width="1.5"/>
<polygon points="219.9,234.8 244.3,248.9 244.3,277.1 219.9,291.2 195.4,277.1 195.4,248.9" fill="#efeae1" stroke="#d6cfc0" stroke-width="1.5"/>
<polygon points="271.8,234.8 296.2,248.9 296.2,277.1 271.8,291.2 247.4,277.1 247.4,248.9" fill="#efeae1" stroke="#d6cfc0" stroke-width="1.5"/>
<polygon points="323.8,234.8 348.2,248.9 348.2,277.1 323.8,291.2 299.4,277.1 299.4,248.9" fill="#efeae1" stroke="#d6cfc0" stroke-width="1.5"/>
<polygon points="375.7,234.8 400.2,248.9 400.2,277.1 375.7,291.2 351.3,277.1 351.3,248.9" fill="#efeae1" stroke="#d6cfc0" stroke-width="1.5"/>
<polygon points="427.7,234.8 452.1,248.9 452.1,277.1 427.7,291.2 403.3,277.1 403.3,248.9" fill="#efeae1" stroke="#d6cfc0" stroke-width="1.5"/>
<polygon points="479.7,234.8 504.1,248.9 504.1,277.1 479.7,291.2 455.3,277.1 455.3,248.9" fill="#efeae1" stroke="#d6cfc0" stroke-width="1.5"/>
<polygon points="531.6,234.8 556.1,248.9 556.1,277.1 531.6,291.2 507.2,277.1 507.2,248.9" fill="#efeae1" stroke="#d6cfc0" stroke-width="1.5"/>
<polygon points="193.9,279.8 218.3,293.9 218.3,322.1 193.9,336.2 169.5,322.1 169.5,293.9" fill="#efeae1" stroke="#d6cfc0" stroke-width="1.5"/>
<polygon points="245.8,279.8 270.3,293.9 270.3,322.1 245.8,336.2 221.4,322.1 221.4,293.9" fill="#efeae1" stroke="#d6cfc0" stroke-width="1.5"/>
<polygon points="297.8,279.8 322.2,293.9 322.2,322.1 297.8,336.2 273.4,322.1 273.4,293.9" fill="#efeae1" stroke="#d6cfc0" stroke-width="1.5"/>
<polygon points="349.8,279.8 374.2,293.9 374.2,322.1 349.8,336.2 325.3,322.1 325.3,293.9" fill="#efeae1" stroke="#d6cfc0" stroke-width="1.5"/>
<polygon points="401.7,279.8 426.2,293.9 426.2,322.1 401.7,336.2 377.3,322.1 377.3,293.9" fill="#efeae1" stroke="#d6cfc0" stroke-width="1.5"/>
<polygon points="453.7,279.8 478.1,293.9 478.1,322.1 453.7,336.2 429.3,322.1 429.3,293.9" fill="#efeae1" stroke="#d6cfc0" stroke-width="1.5"/>
<polygon points="505.7,279.8 530.1,293.9 530.1,322.1 505.7,336.2 481.2,322.1 481.2,293.9" fill="#efeae1" stroke="#d6cfc0" stroke-width="1.5"/>
<polygon points="557.6,279.8 582.0,293.9 582.0,322.1 557.6,336.2 533.2,322.1 533.2,293.9" fill="#efeae1" stroke="#d6cfc0" stroke-width="1.5"/>
<polyline points="193.9,308.0 271.8,173.0 349.8,38.0 245.8,218.0" fill="none" stroke="#c8683c" stroke-width="7" stroke-linejoin="round" stroke-linecap="round" opacity="0.28"/>
<polygon points="193.9,279.8 218.3,293.9 218.3,322.1 193.9,336.2 169.5,322.1 169.5,293.9" fill="#c8683c" stroke="#00000022" stroke-width="2"/>
<text x="193.9" y="308.0" text-anchor="middle" font-family="Georgia, serif" font-size="15" font-weight="700" fill="#fff" dominant-baseline="central">F</text>
<polygon points="219.9,234.8 244.3,248.9 244.3,277.1 219.9,291.2 195.4,277.1 195.4,248.9" fill="#c8683c" stroke="#00000022" stroke-width="2"/>
<text x="219.9" y="263.0" text-anchor="middle" font-family="Georgia, serif" font-size="15" font-weight="700" fill="#fff" dominant-baseline="central">C</text>
<polygon points="245.8,189.8 270.3,203.9 270.3,232.1 245.8,246.2 221.4,232.1 221.4,203.9" fill="#c8683c" stroke="#00000022" stroke-width="2"/>
<text x="245.8" y="218.0" text-anchor="middle" font-family="Georgia, serif" font-size="15" font-weight="700" fill="#fff" dominant-baseline="central">G</text>
<polygon points="271.8,144.8 296.2,158.9 296.2,187.1 271.8,201.2 247.4,187.1 247.4,158.9" fill="#c8683c" stroke="#00000022" stroke-width="2"/>
<text x="271.8" y="173.0" text-anchor="middle" font-family="Georgia, serif" font-size="15" font-weight="700" fill="#fff" dominant-baseline="central">D</text>
<polygon points="297.8,99.8 322.2,113.9 322.2,142.1 297.8,156.2 273.4,142.1 273.4,113.9" fill="#c8683c" stroke="#00000022" stroke-width="2"/>
<text x="297.8" y="128.0" text-anchor="middle" font-family="Georgia, serif" font-size="15" font-weight="700" fill="#fff" dominant-baseline="central">A</text>
<polygon points="323.8,54.8 348.2,68.9 348.2,97.1 323.8,111.2 299.4,97.1 299.4,68.9" fill="#c8683c" stroke="#00000022" stroke-width="2"/>
<text x="323.8" y="83.0" text-anchor="middle" font-family="Georgia, serif" font-size="15" font-weight="700" fill="#fff" dominant-baseline="central">E</text>
<polygon points="349.8,9.8 374.2,23.9 374.2,52.1 349.8,66.2 325.3,52.1 325.3,23.9" fill="#c8683c" stroke="#00000022" stroke-width="2"/>
<text x="349.8" y="38.0" text-anchor="middle" font-family="Georgia, serif" font-size="15" font-weight="700" fill="#fff" dominant-baseline="central">B</text>

</g>
</svg>